<svg width="375" height="115" viewBox="0 0 375 115" fill="none" xmlns="http://www.w3.org/2000/svg">
  <path d="M0 115H375V62.1635C375 62.1635 348.377 51.3144 307.052 46.8849C261.992 42.0572 237.282 42.3359 194.518 46.8849C139.987 52.6488 124.51 62.8507 66.6433 57.4607C33.7673 54.2619 0 37.8354 0 37.8354V115Z" fill="#1A5B92" fill-opacity="0.12"/>
  <path d="M0 115H375V75.1117C375 75.1117 348.377 66.0514 307.052 62.563C261.992 58.7857 237.282 58.9986 194.518 62.563C139.987 67.0807 124.51 75.1836 66.6433 70.968C33.7673 68.4389 0 55.5044 0 55.5044V115Z" fill="#1A5B92" fill-opacity="0.25"/>
</svg>