<svg width="375" height="115" viewBox="0 0 375 115" fill="none" xmlns="http://www.w3.org/2000/svg">
  <path d="M375 0H0V52.8365C0 52.8365 26.6234 63.6856 67.9483 68.1151C113.008 72.9428 137.718 72.6641 180.482 68.1151C235.013 62.3512 250.49 52.1493 308.357 57.5393C341.233 60.7381 375 77.1646 375 77.1646V0Z" fill="#1A5B92" fill-opacity="0.12"/>
  <path d="M375 0H0V39.8883C0 39.8883 26.6234 48.9486 67.9483 52.437C113.008 56.2143 137.718 56.0014 180.482 52.437C235.013 47.9193 250.49 39.8164 308.357 44.032C341.233 46.5611 375 59.4956 375 59.4956V0Z" fill="#1A5B92" fill-opacity="0.25"/>
</svg>